<?xml version="1.0" encoding="UTF-8" standalone="no"?>
<svg
   xmlns:dc="http://purl.org/dc/elements/1.1/"
   xmlns:cc="http://creativecommons.org/ns#"
   xmlns:rdf="http://www.w3.org/1999/02/22-rdf-syntax-ns#"
   xmlns:svg="http://www.w3.org/2000/svg"
   xmlns="http://www.w3.org/2000/svg"
   xmlns:sodipodi="http://sodipodi.sourceforge.net/DTD/sodipodi-0.dtd"
   xmlns:inkscape="http://www.inkscape.org/namespaces/inkscape"
   version="1.1"
   id="svg2"
   xml:space="preserve"
   width="320"
   height="240"
   viewBox="0 0 320 240"
   sodipodi:docname="img-logo-papara.svg.eps"><metadata
     id="metadata8"><rdf:RDF><cc:Work
         rdf:about=""><dc:format>image/svg+xml</dc:format><dc:type
           rdf:resource="http://purl.org/dc/dcmitype/StillImage" /></cc:Work></rdf:RDF></metadata><defs
     id="defs6" /><sodipodi:namedview
     pagecolor="#ffffff"
     bordercolor="#666666"
     borderopacity="1"
     objecttolerance="10"
     gridtolerance="10"
     guidetolerance="10"
     inkscape:pageopacity="0"
     inkscape:pageshadow="2"
     inkscape:window-width="640"
     inkscape:window-height="480"
     id="namedview4" /><g
     id="g10"
     inkscape:groupmode="layer"
     inkscape:label="ink_ext_XXXXXX"
     transform="matrix(1.3333333,0,0,-1.3333333,0,240)"><g
       id="g12"
       transform="scale(0.1)"><path
         d="m 88.2813,307.27 h 192.027 V 439.489 H 88.2813 Z M 21.0508,6.28906 C 13.2813,10.6992 7.37891,16.9883 3.71094,25.4688 1.08984,31.0195 0,37.3008 0,44.3398 V 483.789 c 0,12.191 4.41016,22.539 12.9297,31.012 8.4805,8.519 19.2187,12.929 31.4101,12.929 H 324.609 c 12.192,0 22.891,-4.41 31.411,-12.929 8.468,-8.473 12.929,-18.821 12.929,-31.012 V 263.32 c 0,-12.929 -4.07,-23.281 -12.578,-31.41 v -0.351 H 356.02 C 347.891,223.051 337.539,218.98 324.609,218.98 H 88.2813 V 44.3398 c 0,-7.039 -1.1329,-13.3203 -3.711,-18.871 C 81.9883,19.9609 78.6719,15.1602 74.2188,11.0898 65.7383,3.71094 55.7813,0 44.3398,0 35.8203,0 28.0898,2.23047 21.0508,6.28906 Z"
         style="fill:#ffffff;fill-opacity:1;fill-rule:nonzero;stroke:none"
         id="path14" /><path
         d="m 546.211,198.672 h 89.73 L 591.25,339.02 Z m 87.148,298.789 139.61,-439.4922 c 1.48,-4.8086 2.191,-9.9571 2.191,-14.7696 0,-6.289 -1.449,-12.539 -4.07,-18.0781 -2.57,-5.5508 -5.891,-9.9609 -10.699,-14.0313 C 751.91,3.71094 741.559,0 730.121,0 720.898,0 712.77,2.57813 705.391,7.76953 697.621,13.2813 692.07,21.0508 689.141,31.0195 v 0.3907 L 664.02,110.039 H 517.77 L 492.301,31.0195 C 489.34,21.0508 483.789,13.2813 476.051,7.76953 469.02,2.57813 460.512,0 451.289,0 c -8.48,0 -16.25,2.23047 -23.629,6.28906 -7.781,4.80074 -13.281,11.05074 -17.351,18.83204 -2.61,5.5391 -4.059,11.7891 -4.059,18.0781 0,4.8125 0.738,9.961 2.578,14.7696 L 549.531,497.461 c 2.969,9.609 8.867,16.988 17.348,22.148 7.383,4.45 15.5,6.641 24.762,6.641 8.871,0 16.988,-2.191 24.379,-6.641 8.468,-5.16 14.371,-12.539 17.339,-22.148 z"
         style="fill:#ffffff;fill-opacity:1;fill-rule:nonzero;stroke:none"
         id="path16" /><path
         d="m 900,307.27 h 192.031 V 439.489 H 900 Z M 832.77,6.28906 c -7.731,4.41014 -13.629,10.69924 -17.34,19.17974 -2.578,5.5507 -3.711,11.832 -3.711,18.871 V 483.789 c 0,12.191 4.453,22.539 12.929,31.012 8.512,8.519 19.223,12.929 31.403,12.929 h 280.319 c 12.18,0 22.89,-4.41 31.36,-12.929 8.52,-8.473 12.93,-18.821 12.93,-31.012 V 263.32 c 0,-12.929 -4.06,-23.281 -12.54,-31.41 v -0.351 h -0.39 c -8.12,-8.508 -18.43,-12.579 -31.36,-12.579 H 900 V 44.3398 c 0,-7.039 -1.09,-13.3203 -3.711,-18.871 C 893.711,19.9609 890.391,15.1602 885.98,11.0898 877.461,3.71094 867.5,0 856.051,0 847.578,0 839.801,2.23047 832.77,6.28906 Z"
         style="fill:#ffffff;fill-opacity:1;fill-rule:nonzero;stroke:none"
         id="path18" /><path
         d="m 1357.93,198.672 h 89.77 l -44.69,140.348 z m 87.19,298.789 139.57,-439.4922 c 1.48,-4.8086 2.22,-9.9571 2.22,-14.7696 0,-6.289 -1.48,-12.539 -4.06,-18.0781 -2.58,-5.5508 -5.9,-9.9609 -10.7,-14.0313 C 1563.63,3.71094 1553.32,0 1541.88,0 c -9.26,0 -17.39,2.57813 -24.77,7.76953 -7.73,5.51177 -13.28,13.28127 -16.25,23.24997 v 0.3907 l -25.12,78.6288 H 1329.49 L 1304.02,31.0195 C 1301.05,21.0508 1295.55,13.2813 1287.77,7.76953 1280.74,2.57813 1272.27,0 1263.05,0 c -8.52,0 -16.25,2.23047 -23.67,6.28906 -7.74,4.80074 -13.29,11.05074 -17.35,18.83204 -2.58,5.5391 -4.06,11.7891 -4.06,18.0781 0,4.8125 0.74,9.961 2.58,14.7696 l 140.7,439.4922 c 2.97,9.609 8.87,16.988 17.38,22.148 7.39,4.45 15.51,6.641 24.73,6.641 8.87,0 16.99,-2.191 24.37,-6.641 8.52,-5.16 14.42,-12.539 17.39,-22.148 z"
         style="fill:#ffffff;fill-opacity:1;fill-rule:nonzero;stroke:none"
         id="path20" /><path
         d="m 1711.72,308.359 h 192.07 v 131.48 H 1711.72 Z M 1985.04,67.9688 v 0.3515 c 5.16,-7.7695 7.73,-15.8594 7.38,-24.3711 0,-6.289 -1.48,-12.1875 -4.06,-18.0898 -2.58,-5.1992 -5.94,-9.6094 -10,-13.668 C 1969.53,4.05859 1959.18,0 1947.34,0 c -6.99,0 -14.02,1.83984 -20.31,5.16016 -6.25,3.71093 -11.8,8.85934 -15.86,15.89064 L 1783.4,220.121 h -71.68 V 44.6914 c 0,-7.0312 -1.1,-13.2812 -3.67,-18.832 -2.58,-5.5508 -5.9,-10.3477 -10.35,-14.4102 -8.48,-7.39061 -18.48,-11.097637 -29.93,-11.097637 -8.47,0 -16.25,1.878907 -23.24,5.937497 -7.77,4.80074 -13.67,11.05074 -17.38,19.57034 -2.58,5.5508 -3.67,11.8008 -3.67,18.832 V 484.18 c 0,12.191 4.41,22.5 12.93,31.019 8.47,8.473 19.18,12.922 31.36,12.922 h 280.32 c 12.18,0 22.89,-4.449 31.4,-12.922 8.48,-8.519 12.93,-18.828 12.93,-31.019 V 264.41 c 0,-12.18 -4.45,-22.89 -12.93,-31.359 -8.51,-8.52 -19.22,-12.93 -31.4,-12.93 h -59.81 z"
         style="fill:#ffffff;fill-opacity:1;fill-rule:nonzero;stroke:none"
         id="path22" /><path
         d="m 2167.81,198.672 h 89.77 L 2212.89,339.02 Z M 2255,497.461 2394.57,57.9688 c 1.48,-4.8086 2.23,-9.9571 2.23,-14.7696 0,-6.289 -1.49,-12.539 -4.07,-18.0781 -2.57,-5.5508 -5.89,-9.9609 -10.7,-14.0313 C 2373.52,3.71094 2363.2,0 2351.76,0 c -9.26,0 -17.38,2.57813 -24.77,7.76953 -7.73,5.51177 -13.28,13.28127 -16.25,23.24997 v 0.3907 l -25.12,78.6288 h -146.21 l -25.5,-79.0195 C 2110.98,21.0508 2105.43,13.2813 2097.66,7.76953 2090.66,2.57813 2082.15,0 2072.93,0 c -8.52,0 -16.25,2.23047 -23.63,6.28906 -7.78,4.80074 -13.32,11.05074 -17.39,18.83204 -2.57,5.5391 -4.06,11.7891 -4.06,18.0781 0,4.8125 0.74,9.961 2.58,14.7696 l 140.74,439.4922 c 2.93,9.609 8.83,16.988 17.35,22.148 7.38,4.45 15.5,6.641 24.72,6.641 8.87,0 16.99,-2.191 24.38,-6.641 8.51,-5.16 14.41,-12.539 17.38,-22.148 z"
         style="fill:#ffffff;fill-opacity:1;fill-rule:nonzero;stroke:none"
         id="path24" /><path
         d="m 1567.85,1125.9 c 109.49,119.53 141.29,291.13 78.05,441.01 -69.69,165.12 -237.5,248.52 -412.93,230.75 -83.4,-8.48 -167.15,-27.54 -245.2,-58.44 -46.321,-18.36 -90.231,-41.45 -123,-80.04 -39.848,-46.95 -56.84,-100.43 -62.86,-160.74 -7.219,-71.99 0.899,-146.92 8.828,-220.24 2.582,-24.02 5.16,-47.89 7.192,-71.44 9.179,-107.03 20.742,-213.67 32.621,-320.432 5.469,-49.137 38.199,-91.558 91.558,-91.558 51.641,0 89.101,41.949 91.561,91.558 7.46,150.042 13.21,299.922 15.98,450.152 0.35,17.23 0.23,34.42 0.12,51.64 v 0.04 c -0.12,18.75 -0.28,37.5 0.15,56.22 0.16,6.05 0.35,12.1 0.7,18.16 0.12,1.95 1.29,10 1.84,14.61 0.59,2.38 1.13,4.61 1.25,5 0.47,1.52 0.94,3.01 1.41,4.53 0.04,0.12 0.15,0.31 0.23,0.47 l 0.78,0.74 c 5.47,3.2 10.98,6.13 16.6,8.99 0.12,0.03 0.2,0.07 0.36,0.11 30.54,8.36 60.27,19.65 91.01,27.66 17.03,4.45 34.14,8.47 51.41,11.83 6.44,1.25 12.93,2.39 19.41,3.44 0.43,0.08 0.7,0.16 1.06,0.2 0.93,0.08 2.07,0.15 3.43,0.27 15,1.13 29.89,2.15 44.97,1.99 2.42,-0.04 4.96,-0.23 7.53,-0.43 3.87,-0.31 7.78,-0.58 11.49,-0.31 1.95,0.16 2.97,0.35 3.48,0.59 1.4,-0.43 3.32,-0.94 5.93,-1.57 8.17,-1.95 16.21,-3.98 24.38,-6.01 0.15,-0.04 4.02,-1.29 7.34,-2.35 4.1,-1.91 11.33,-5.11 13.2,-6.17 4.34,-2.42 8.52,-5.15 12.82,-7.61 0.47,-0.28 0.82,-0.47 1.25,-0.71 2.5,-2.19 5,-4.37 7.26,-6.76 4.38,-4.57 8.6,-10.35 13.56,-14.17 0,-0.04 0.04,-0.04 0.08,-0.08 0.23,-0.39 0.39,-0.71 0.62,-1.14 5.7,-9.49 10.63,-20.93 17.03,-29.76 1.33,-3.63 2.66,-7.27 3.83,-10.98 3.67,-11.13 6.37,-22.42 9.18,-33.79 1.21,-4.88 1.8,-9.88 2.77,-14.76 -0.97,5 -1.68,8.47 -2.11,10.78 l -0.04,0.04 c -0.5,2.58 -0.7,3.63 -0.7,3.63 -0.04,0 0.04,-0.47 0.16,-1.29 0.47,-2.97 1.64,-10.51 1.64,-14.3 -0.08,-11.6 -0.04,-23.08 -0.51,-34.68 -0.78,-3.87 -1.45,-7.74 -2.54,-11.53 -2.62,-9.41 -5.43,-18.59 -8.44,-27.81 -0.7,-1.52 -1.4,-3.01 -2.07,-4.06 -4.72,-7.58 -8.67,-15.63 -13.55,-23.13 -1.13,-1.72 -2.31,-3.4 -3.48,-5.07 -0.74,-0.59 -7.85,-9.69 -10.11,-12.15 -9.34,-10.04 -19.34,-19.38 -29.85,-28.21 -0.66,-0.39 -1.44,-0.89 -2.42,-1.52 -7.62,-4.8 -15,-9.8 -22.77,-14.37 -10.55,-6.18 -21.41,-11.92 -32.46,-17.15 0.82,0.74 -8.17,-2.54 -16.41,-5.51 -5.2,-1.88 -10.12,-3.67 -12.11,-4.3 -13.75,-4.22 -27.66,-8.36 -41.72,-11.56 -5,-1.13 -10.04,-2.07 -15.08,-3.01 -1.95,-0.12 -10.31,-1.25 -14.57,-1.68 -28.08,-2.85 -49.84,-10.35 -75.51,-21.83 -71.21,-31.88 -53.16,-129.46 0,-165.9 65.51,-44.881 173.21,-32.272 245.2,-9.77 75.47,23.6 147.46,65.28 201.17,123.91 z m -504.45,368.59 c -1.21,-1.29 -4.77,-4.76 -7.07,-6.4 7.11,6.91 8.28,7.73 7.07,6.4 z m -6.45,-1.68 c 0.94,0.39 1.84,-1.48 -1.33,-5.19 0.28,0.47 0.51,0.9 0.83,1.48 -0.16,0.51 -0.16,0.9 -0.2,1.33 0.23,0.78 0.47,1.56 0.7,2.38 z m -0.11,-0.15 c -0.24,-0.51 -0.43,-0.98 -0.67,-1.45 0.08,0.78 0.31,1.25 0.67,1.45 z m 367.18,-132.93 c 0,0.62 0.12,3.39 0.36,6.32 -0.28,-5.5 -0.36,-6.95 -0.36,-6.32 z m -7.89,-21.92 c -0.11,-0.43 -0.78,-2.34 -1.68,-4.53 1.37,3.83 1.8,4.92 1.68,4.53 z"
         style="fill:#ffffff;fill-opacity:1;fill-rule:evenodd;stroke:none"
         id="path26" /><path
         d="m 688.359,1272.93 c 0,-69.18 13.36,-135.35 40.121,-198.55 21.36,-50.59 50.11,-96.411 86.129,-137.431 l -0.699,6.449 -1.101,10.043 -2.188,20 -0.152,1.758 c -25.348,32.851 -46.168,68.671 -62.578,107.421 -25.621,60.54 -38.442,123.98 -38.442,190.31 0,66.33 12.821,129.77 38.442,190.31 7.578,17.89 16.089,35.16 25.589,51.84 l 0.192,1.48 0.078,0.71 1.449,9.96 0.11,0.78 1.722,9.88 0.16,0.82 1.95,9.88 0.199,0.86 2.301,9.81 0.199,0.9 2.609,9.72 0.281,0.98 0.27,1.02 c -22.5,-31.06 -41.371,-64.54 -56.52,-100.43 -26.761,-63.17 -40.121,-129.34 -40.121,-198.52 z"
         style="fill:#75787b;fill-opacity:1;fill-rule:evenodd;stroke:none"
         id="path28" /><path
         d="m 1192.15,1274.77 c 123.05,0 123.24,191.21 0,191.21 -123.05,0 -123.28,-191.21 0,-191.21 z"
         style="fill:#75787b;fill-opacity:1;fill-rule:evenodd;stroke:none"
         id="path30" /><path
         d="m 1668.36,1074.38 c 26.72,63.2 40.08,129.37 40.08,198.55 0,23.95 -1.6,47.58 -4.81,70.82 l -1.36,-8.75 -0.12,-0.7 -1.8,-9.92 -0.15,-0.71 -2,-9.84 -0.15,-0.71 -2.27,-9.8 -0.16,-0.7 -2.5,-9.73 -0.19,-0.74 -2.73,-9.65 -0.2,-0.7 -2.66,-8.6 v -0.27 c 0,-66.33 -12.81,-129.77 -38.43,-190.31 -24.73,-58.52 -59.65,-110.319 -104.77,-155.429 -45.12,-45.121 -96.95,-80.043 -155.43,-104.769 -60.55,-25.621 -123.98,-38.442 -190.31,-38.442 -55.9,0 -109.73,9.11 -161.52,27.309 l -0.28,-0.391 -1.99,-2.5 -6.68,-7.5 -2.31,-2.308 -4.53,-4.059 c 56.76,-21.09 115.86,-31.64 177.31,-31.64 69.18,0 135.35,13.359 198.51,40.078 61.06,25.82 115.08,62.23 162.15,109.301 47.03,47.07 83.48,101.09 109.3,162.11 z"
         style="fill:#75787b;fill-opacity:1;fill-rule:evenodd;stroke:none"
         id="path32" /></g></g></svg>
