<?xml version="1.0" encoding="UTF-8" standalone="no"?>
<svg
   xmlns:dc="http://purl.org/dc/elements/1.1/"
   xmlns:cc="http://creativecommons.org/ns#"
   xmlns:rdf="http://www.w3.org/1999/02/22-rdf-syntax-ns#"
   xmlns:svg="http://www.w3.org/2000/svg"
   xmlns="http://www.w3.org/2000/svg"
   xmlns:sodipodi="http://sodipodi.sourceforge.net/DTD/sodipodi-0.dtd"
   xmlns:inkscape="http://www.inkscape.org/namespaces/inkscape"
   version="1.1"
   id="svg2"
   xml:space="preserve"
   width="137.33333"
   height="140"
   viewBox="0 0 137.33333 140"
   sodipodi:docname="color2-white_icon_transparent_background.eps"><metadata
     id="metadata8"><rdf:RDF><cc:Work
         rdf:about=""><dc:format>image/svg+xml</dc:format><dc:type
           rdf:resource="http://purl.org/dc/dcmitype/StillImage" /></cc:Work></rdf:RDF></metadata><defs
     id="defs6" /><sodipodi:namedview
     pagecolor="#ffffff"
     bordercolor="#666666"
     borderopacity="1"
     objecttolerance="10"
     gridtolerance="10"
     guidetolerance="10"
     inkscape:pageopacity="0"
     inkscape:pageshadow="2"
     inkscape:window-width="640"
     inkscape:window-height="480"
     id="namedview4" /><g
     id="g10"
     inkscape:groupmode="layer"
     inkscape:label="ink_ext_XXXXXX"
     transform="matrix(1.3333333,0,0,-1.3333333,0,140)"><g
       id="g12"
       transform="scale(0.1)"><path
         d="M 884.059,372.379 C 994.102,492.539 1026.09,665.039 962.5,815.699 892.461,981.68 723.75,1065.51 547.422,1047.62 463.59,1039.14 379.41,1019.96 300.98,988.91 254.379,970.43 210.27,947.23 177.34,908.441 137.27,861.25 120.199,807.461 114.141,746.879 c -7.262,-72.348 0.898,-147.699 8.871,-221.367 2.609,-24.184 5.187,-48.172 7.218,-71.84 9.219,-107.582 20.86,-214.801 32.821,-322.113 5.469,-49.4106 38.359,-92.0277 92.027,-92.0277 51.871,0 89.57,42.1875 92.031,92.0277 7.461,150.82 13.243,301.531 16.051,452.5 0.32,17.312 0.238,34.613 0.078,51.921 v 0.04 c -0.117,18.859 -0.226,37.691 0.203,56.519 0.149,6.09 0.348,12.152 0.7,18.242 0.121,1.989 1.289,10.039 1.839,14.688 0.622,2.422 1.168,4.652 1.29,5.043 0.429,1.519 0.89,3.008 1.359,4.527 0.082,0.16 0.16,0.352 0.281,0.473 l 0.738,0.738 c 5.551,3.238 11.051,6.172 16.723,9.059 0.109,0.043 0.188,0.082 0.348,0.121 30.703,8.398 60.582,19.73 91.48,27.769 17.11,4.461 34.34,8.52 51.68,11.922 6.492,1.25 12.973,2.379 19.5,3.469 0.422,0.082 0.699,0.121 1.09,0.199 0.941,0.039 2.07,0.121 3.441,0.231 15.07,1.179 30.039,2.191 45.192,2 2.457,0 5,-0.2 7.578,-0.399 3.91,-0.312 7.808,-0.621 11.519,-0.312 2,0.121 3.012,0.351 3.52,0.55 1.441,-0.39 3.32,-0.898 5.98,-1.519 8.199,-2 16.281,-4.031 24.492,-6.102 0.149,-0.039 4.059,-1.289 7.379,-2.297 4.102,-1.961 11.371,-5.16 13.282,-6.211 4.378,-2.46 8.558,-5.199 12.886,-7.699 0.473,-0.269 0.821,-0.472 1.25,-0.703 2.5,-2.187 5,-4.379 7.313,-6.797 4.371,-4.57 8.629,-10.39 13.59,-14.261 0.039,-0.04 0.039,-0.04 0.078,-0.04 0.23,-0.429 0.39,-0.699 0.66,-1.171 5.711,-9.528 10.672,-21.047 17.109,-29.918 1.332,-3.629 2.66,-7.301 3.871,-11.02 3.672,-11.211 6.371,-22.531 9.219,-33.98 1.211,-4.879 1.793,-9.879 2.774,-14.84 -1.012,5.039 -1.68,8.551 -2.153,10.859 v 0.039 c -0.5,2.61 -0.699,3.629 -0.738,3.629 0,0 0.078,-0.469 0.199,-1.25 0.469,-3.008 1.641,-10.59 1.641,-14.379 C 740.469,641.52 740.469,630 740,618.32 c -0.781,-3.871 -1.449,-7.769 -2.5,-11.601 -2.66,-9.449 -5.469,-18.668 -8.52,-27.93 -0.66,-1.559 -1.402,-3.051 -2.07,-4.098 -4.762,-7.621 -8.75,-15.711 -13.629,-23.242 -1.133,-1.758 -2.301,-3.398 -3.48,-5.121 -0.742,-0.59 -7.891,-9.726 -10.192,-12.187 -9.379,-10.121 -19.449,-19.493 -29.961,-28.36 -0.668,-0.39 -1.488,-0.902 -2.457,-1.562 -7.66,-4.809 -15.082,-9.84 -22.89,-14.418 -10.629,-6.211 -21.531,-11.992 -32.621,-17.262 0.781,0.742 -8.2,-2.5 -16.52,-5.508 -5.199,-1.91 -10.16,-3.711 -12.148,-4.301 -13.832,-4.25 -27.782,-8.39 -41.922,-11.64 -5.039,-1.129 -10.11,-2.07 -15.192,-3 -1.949,-0.16 -10.347,-1.289 -14.648,-1.719 -28.199,-2.851 -50.078,-10.391 -75.859,-21.961 -71.602,-32.031 -53.481,-130.109 0,-166.75 65.82,-45.121 174.058,-32.43 246.449,-9.808 75.859,23.707 148.199,65.589 202.219,124.57 z M 376.949,742.93 c -1.211,-1.328 -4.758,-4.809 -7.07,-6.45 7.152,6.918 8.32,7.739 7.07,6.45 z m -6.437,-1.719 c 0.937,0.391 1.828,-1.481 -1.332,-5.231 0.269,0.5 0.511,0.93 0.82,1.481 -0.16,0.551 -0.199,0.937 -0.23,1.367 0.23,0.781 0.5,1.602 0.742,2.383 z m -0.16,-0.16 c -0.192,-0.5 -0.43,-0.973 -0.622,-1.442 0.04,0.782 0.309,1.25 0.622,1.442 z M 739.488,607.422 c 0,0.668 0.121,3.437 0.313,6.406 -0.231,-5.547 -0.352,-7.027 -0.313,-6.406 z m -7.929,-22.031 c -0.11,-0.391 -0.821,-2.301 -1.719,-4.532 1.371,3.832 1.84,4.961 1.719,4.532 z"
         style="fill:#ffffff;fill-opacity:1;fill-rule:evenodd;stroke:none"
         id="path14" /><path
         d="M 0,520.199 C 0,450.66 13.4414,384.141 40.3086,320.621 61.8008,269.73 90.6992,223.672 126.91,182.461 l -0.699,6.488 -1.133,10.071 -1.098,10.082 -1.089,10.039 -0.161,1.757 C 97.2695,253.949 76.2891,289.922 59.8398,328.871 34.0586,389.77 21.2109,453.52 21.2109,520.199 c 0,66.641 12.8477,130.422 38.6289,191.281 7.5821,18.008 16.1797,35.36 25.711,52.11 l 0.1875,1.488 0.082,0.742 1.4492,9.961 0.1094,0.778 1.7227,9.961 0.1601,0.82 1.9883,9.93 0.1992,0.851 2.3008,9.891 0.2305,0.898 2.5781,9.762 0.2812,0.976 0.3086,1.012 C 74.4883,789.449 55.5508,755.82 40.3086,719.73 13.4414,656.211 0,589.73 0,520.199 Z"
         style="fill:#75787b;fill-opacity:1;fill-rule:evenodd;stroke:none"
         id="path16" /><path
         d="m 506.371,522.031 c 123.707,0 123.899,192.231 0,192.231 -123.672,0 -123.871,-192.231 0,-192.231 z"
         style="fill:#75787b;fill-opacity:1;fill-rule:evenodd;stroke:none"
         id="path18" /><path
         d="m 985.078,320.621 c 26.832,63.52 40.272,130.039 40.272,199.578 0,24.063 -1.6,47.813 -4.84,71.211 l -1.37,-8.832 -0.12,-0.699 -1.79,-9.969 -0.12,-0.699 -2.03,-9.922 -0.16,-0.699 -2.26,-9.852 -0.2,-0.699 -2.5,-9.809 -0.19,-0.699 -2.74,-9.73 -0.19,-0.699 -2.7,-8.633 v -0.27 C 1004.14,453.52 991.289,389.77 965.551,328.871 940.66,270.078 905.551,218.012 860.199,172.66 814.84,127.301 762.77,92.1914 703.98,67.3008 643.121,41.5586 579.34,28.7109 512.699,28.7109 c -56.219,0 -110.32,9.1407 -162.39,27.418 l -0.27,-0.3476 -1.988,-2.543 -6.723,-7.5 -2.348,-2.3399 -4.531,-4.0976 C 391.48,18.0898 450.898,7.5 512.699,7.5 582.23,7.5 648.711,20.9414 712.27,47.7695 773.59,73.75 827.891,110.352 875.199,157.66 922.5,204.961 959.141,259.301 985.078,320.621 Z"
         style="fill:#75787b;fill-opacity:1;fill-rule:evenodd;stroke:none"
         id="path20" /></g></g></svg>
